<?xml version="1.0" encoding="UTF-8" standalone="no"?>
<!-- Created with Inkscape (http://www.inkscape.org/) -->

<svg
   xmlns:dc="http://purl.org/dc/elements/1.1/"
   xmlns:cc="http://creativecommons.org/ns#"
   xmlns:rdf="http://www.w3.org/1999/02/22-rdf-syntax-ns#"
   xmlns:svg="http://www.w3.org/2000/svg"
   xmlns="http://www.w3.org/2000/svg"
   xmlns:sodipodi="http://sodipodi.sourceforge.net/DTD/sodipodi-0.dtd"
   xmlns:inkscape="http://www.inkscape.org/namespaces/inkscape"
   width="160"
   height="160"
   id="svg2"
   version="1.1"
   inkscape:version="0.48.4 r9939"
   sodipodi:docname="New document 1">
  <defs
     id="defs4" />
  <sodipodi:namedview
     id="base"
     pagecolor="#ffffff"
     bordercolor="#666666"
     borderopacity="1.0"
     inkscape:pageopacity="0.0"
     inkscape:pageshadow="2"
     inkscape:zoom="2.8284271"
     inkscape:cx="84.871042"
     inkscape:cy="75.159561"
     inkscape:document-units="px"
     inkscape:current-layer="layer1"
     showgrid="true"
     inkscape:object-paths="true"
     inkscape:snap-intersection-paths="true"
     inkscape:object-nodes="true"
     inkscape:snap-smooth-nodes="true"
     fit-margin-top="10"
     fit-margin-left="10"
     fit-margin-right="10"
     fit-margin-bottom="10"
     inkscape:window-width="1280"
     inkscape:window-height="962"
     inkscape:window-x="-8"
     inkscape:window-y="-8"
     inkscape:window-maximized="1">
    <inkscape:grid
       type="xygrid"
       id="grid2985"
       empspacing="5"
       visible="true"
       enabled="true"
       snapvisiblegridlinesonly="true"
       originx="0px"
       originy="-890px" />
  </sodipodi:namedview>
  <metadata
     id="metadata7">
    <rdf:RDF>
      <cc:Work
         rdf:about="">
        <dc:format>image/svg+xml</dc:format>
        <dc:type
           rdf:resource="http://purl.org/dc/dcmitype/StillImage" />
        <dc:title></dc:title>
      </cc:Work>
    </rdf:RDF>
  </metadata>
  <g
     inkscape:label="Layer 1"
     inkscape:groupmode="layer"
     id="layer1"
     transform="translate(0,-2.362183)">
    <path
       style="fill:#000000;stroke:none"
       d="m 80,12.362183 -29.90625,29.90625 c 8.34213,-6.2387 18.68797,-9.90625 29.90625,-9.90625 11.21828,0 21.56412,3.66755 29.90625,9.90625 L 80,12.362183 z M 39.9375,52.424683 10,82.362183 39.9375,112.26843 C 33.6988,103.9263 30,93.580463 30,82.362183 c 0,-11.21828 3.6988,-21.59537 9.9375,-29.9375 z m 80.125,0 c 6.2387,8.34213 9.9375,18.71922 9.9375,29.9375 0,11.21828 -3.6988,21.564117 -9.9375,29.906247 L 150,82.362183 120.0625,52.424683 z M 50.09375,122.42468 80,152.36218 l 29.90625,-29.9375 c -8.34213,6.2387 -18.68797,9.9375 -29.90625,9.9375 -11.21828,0 -21.56412,-3.6988 -29.90625,-9.9375 z"
       id="path3021"
       inkscape:connector-curvature="0" />
  </g>
</svg>
